<?xml version="1.0" encoding="UTF-8" standalone="no"?>
<svg width="431px" height="184px" viewBox="0 0 431 184" version="1.1" xmlns="http://www.w3.org/2000/svg" xmlns:xlink="http://www.w3.org/1999/xlink">
    <!-- Generator: Sketch 44.1 (41455) - http://www.bohemiancoding.com/sketch -->
    <title>taft-logo</title>
    <desc>Created with Sketch.</desc>
    <defs></defs>
    <g id="Page-1" stroke="none" stroke-width="1" fill="none" fill-rule="evenodd">
        <g id="taft-logo" fill-rule="nonzero">
            <polyline id="Fill-1" fill="#872729" points="367.338 182.4 345.792 182.4 408.807 14.506 430.354 14.506 367.338 182.4"></polyline>
            <path d="M180.707,154.384 L180.707,102.378 C180.707,70.543 167.292,56.352 137.225,56.352 C126.851,56.352 111.216,60.001 101.633,64.666 L100.456,65.231 L100.456,84.462 L103.674,82.409 C113.573,76.096 124.547,73.026 137.225,73.026 C154.781,73.026 161.936,81.192 161.936,101.217 L161.936,105.137 L161.258,105.137 C135.161,105.137 86.594,105.137 86.594,148.614 C86.594,154.522 88.57,184 127.524,184 C139.519,184 154.745,178.594 163.333,166.939 L163.333,181.23 L182.173,181.23 L181.833,178.841 C180.707,170.881 180.707,163.961 180.707,154.384 L180.707,154.384 Z M161.936,126.868 C161.936,145.706 158.215,167.315 129.146,167.315 C120.775,167.315 106.726,164.828 106.726,148.143 C106.726,124.934 133.59,121.805 159.868,121.805 L161.936,121.805 L161.936,126.868 Z M328.497,163.667 L325.867,164.688 C321.476,166.393 318.157,167.315 313.216,167.315 C304.182,167.315 299.601,161.491 299.601,149.996 L299.601,75.808 L326.405,75.808 L326.405,59.136 L299.601,59.136 L299.601,24.782 L280.833,31.313 L280.833,59.136 L266.764,59.136 L266.764,75.808 L280.833,75.808 L280.833,142.583 C280.833,161.993 280.833,184 309.746,184 C317.713,184 325.177,181.861 328.323,180.602 L329.758,180.035 L328.497,163.667 Z M242.163,0.886 C246.907,0.886 253.604,1.573 256.867,3.491 L257.983,4.151 L256.738,21.383 L253.889,19.853 C251.258,18.434 247.209,17.547 243.324,17.547 C238.728,17.547 235.299,18.758 232.837,21.254 C228.122,26.026 227.544,35.055 227.544,43.291 C227.544,44.669 227.567,46.022 227.578,47.334 L227.603,51.051 L227.603,59.136 L254.181,59.136 L254.181,75.808 L227.603,75.808 L227.603,181.23 L208.86,181.23 L208.86,75.808 L194.09,75.808 L194.09,59.136 L208.86,59.136 L208.86,52.682 C208.86,29.602 208.86,0.886 242.163,0.886 Z M46.951,37.894 L0,37.894 L0,21.314 L113.309,21.314 L113.309,37.894 L66.357,37.894 L66.357,181.504 L46.951,181.504 L46.951,37.894 Z" id="Combined-Shape" fill="#1A1918"></path>
        </g>
    </g>
</svg>